<svg width="20" height="20" viewBox="0 0 20 20" xmlns="http://www.w3.org/2000/svg" fill="#fff">
    <path d="M1.07748 10.5892C0.921259 10.4329 0.833496 10.221 0.833496 10C0.833496 9.77904 0.921259 9.56712 1.07748 9.41085L5.24415 5.24418C5.40132 5.09238 5.61182 5.00839 5.83032 5.01029C6.04882 5.01218 6.25783 5.09983 6.41233 5.25433C6.56684 5.40884 6.65448 5.61785 6.65638 5.83635C6.65828 6.05484 6.57428 6.26535 6.42248 6.42251L3.67832 9.16668H18.3333C18.5543 9.16668 18.7663 9.25448 18.9226 9.41076C19.0789 9.56704 19.1667 9.779 19.1667 10C19.1667 10.221 19.0789 10.433 18.9226 10.5893C18.7663 10.7455 18.5543 10.8333 18.3333 10.8333H3.67832L6.42248 13.5775C6.50208 13.6544 6.56556 13.7463 6.60924 13.848C6.65291 13.9497 6.6759 14.059 6.67686 14.1697C6.67782 14.2803 6.65674 14.3901 6.61484 14.4925C6.57294 14.5949 6.51106 14.6879 6.43281 14.7662C6.35457 14.8444 6.26153 14.9063 6.15911 14.9482C6.0567 14.9901 5.94697 15.0112 5.83632 15.0102C5.72567 15.0093 5.61632 14.9863 5.51465 14.9426C5.41298 14.8989 5.32102 14.8354 5.24415 14.7558L1.07748 10.5892Z" />
</svg>