<svg width="16" height="16" viewBox="0 0 16 16" xmlns="http://www.w3.org/2000/svg" fill="#fff">
    <path d="M6.66675 2.66665C6.66675 2.40294 6.74495 2.14515 6.89146 1.92589C7.03796 1.70662 7.2462 1.53572 7.48984 1.43481C7.73347 1.33389 8.00156 1.30749 8.2602 1.35893C8.51884 1.41038 8.75642 1.53737 8.94289 1.72384C9.12936 1.91031 9.25635 2.14789 9.3078 2.40653C9.35924 2.66517 9.33284 2.93326 9.23192 3.17689C9.131 3.42053 8.96011 3.62876 8.74084 3.77527C8.52158 3.92178 8.26379 3.99998 8.00008 3.99998C7.64646 3.99998 7.30732 3.8595 7.05727 3.60946C6.80722 3.35941 6.66675 3.02027 6.66675 2.66665ZM8.00008 9.33331C8.26379 9.33331 8.52158 9.25511 8.74084 9.10861C8.96011 8.9621 9.131 8.75386 9.23192 8.51022C9.33284 8.26659 9.35924 7.9985 9.3078 7.73986C9.25635 7.48122 9.12936 7.24364 8.94289 7.05717C8.75642 6.8707 8.51884 6.74371 8.2602 6.69227C8.00156 6.64082 7.73347 6.66722 7.48984 6.76814C7.2462 6.86906 7.03796 7.03995 6.89146 7.25922C6.74495 7.47849 6.66675 7.73627 6.66675 7.99998C6.66675 8.3536 6.80722 8.69274 7.05727 8.94279C7.30732 9.19284 7.64646 9.33331 8.00008 9.33331ZM8.00008 14.6666C8.26379 14.6666 8.52158 14.5884 8.74084 14.4419C8.96011 14.2954 9.131 14.0872 9.23192 13.8436C9.33284 13.5999 9.35924 13.3318 9.3078 13.0732C9.25635 12.8146 9.12936 12.577 8.94289 12.3905C8.75642 12.204 8.51884 12.077 8.2602 12.0256C8.00156 11.9742 7.73347 12.0006 7.48984 12.1015C7.2462 12.2024 7.03796 12.3733 6.89146 12.5926C6.74495 12.8118 6.66675 13.0696 6.66675 13.3333C6.66675 13.6869 6.80722 14.0261 7.05727 14.2761C7.30732 14.5262 7.64646 14.6666 8.00008 14.6666Z" />
</svg>