<svg width="15" height="15" viewBox="0 0 15 15" xmlns="http://www.w3.org/2000/svg" fill="#fff">
    <path d="M2.41599 10C3.33915 10.9245 4.5685 11.4794 5.87246 11.5603C7.17641 11.6413 8.46495 11.2426 9.49532 10.4393L13.0407 13.9847C13.1664 14.1061 13.3348 14.1733 13.5096 14.1718C13.6844 14.1703 13.8516 14.1001 13.9752 13.9765C14.0988 13.8529 14.1689 13.6857 14.1704 13.5109C14.172 13.3361 14.1048 13.1677 13.9833 13.042L10.438 9.49666C11.2769 8.42011 11.6735 7.06409 11.5469 5.70518C11.4204 4.34626 10.7802 3.08679 9.75698 2.18364C8.73375 1.28048 7.40455 0.801672 6.04043 0.844849C4.67632 0.888026 3.38005 1.44994 2.41599 2.416C1.91785 2.91388 1.5227 3.50503 1.25309 4.15567C0.983492 4.80632 0.844727 5.50371 0.844727 6.208C0.844727 6.91229 0.983492 7.60968 1.25309 8.26032C1.5227 8.91097 1.91785 9.50212 2.41599 10V10ZM3.35866 3.36C4.01771 2.70096 4.88487 2.29082 5.81241 2.19946C6.73994 2.1081 7.67047 2.34116 8.44543 2.85895C9.2204 3.37673 9.79186 4.14719 10.0625 5.03907C10.3331 5.93095 10.286 6.88907 9.92943 7.75017C9.57282 8.61127 8.92868 9.32209 8.10674 9.76152C7.28481 10.2009 6.33594 10.3418 5.4218 10.1601C4.50767 9.97834 3.68482 9.48528 3.09345 8.76489C2.50209 8.0445 2.1788 7.14136 2.17866 6.20933C2.17683 5.67971 2.28019 5.155 2.48275 4.66565C2.68532 4.1763 2.98304 3.73204 3.35866 3.35866V3.36Z" />
</svg>